<svg id="visual" viewBox="0 0 2560 1440" width="2560" height="1440" xmlns="http://www.w3.org/2000/svg" xmlns:xlink="http://www.w3.org/1999/xlink" version="1.1"><rect x="0" y="0" width="2560" height="1440" fill="#587d9d"></rect><path d="M0 750L85.3 770.8C170.7 791.7 341.3 833.3 512 856C682.7 878.7 853.3 882.3 1024 849C1194.7 815.7 1365.3 745.3 1536 717.3C1706.7 689.3 1877.3 703.7 2048 734.8C2218.7 766 2389.3 814 2474.7 838L2560 862L2560 1441L2474.7 1441C2389.3 1441 2218.7 1441 2048 1441C1877.3 1441 1706.7 1441 1536 1441C1365.3 1441 1194.7 1441 1024 1441C853.3 1441 682.7 1441 512 1441C341.3 1441 170.7 1441 85.3 1441L0 1441Z" fill="#e9e9e9" stroke-linecap="round" stroke-linejoin="miter"></path></svg>