<svg id="visual" viewBox="0 0 3840 2160" width="3840" height="2160" xmlns="http://www.w3.org/2000/svg" xmlns:xlink="http://www.w3.org/1999/xlink" version="1.1"><rect x="0" y="0" width="3840" height="2160" fill="#587d9d"></rect><path d="M0 1496L128 1516C256 1536 512 1576 768 1614.3C1024 1652.7 1280 1689.3 1536 1705C1792 1720.7 2048 1715.3 2304 1695.3C2560 1675.3 2816 1640.7 3072 1649.2C3328 1657.7 3584 1709.3 3712 1735.2L3840 1761L3840 2161L3712 2161C3584 2161 3328 2161 3072 2161C2816 2161 2560 2161 2304 2161C2048 2161 1792 2161 1536 2161C1280 2161 1024 2161 768 2161C512 2161 256 2161 128 2161L0 2161Z" fill="#e9e9e9" stroke-linecap="round" stroke-linejoin="miter"></path></svg>